<svg xmlns="http://www.w3.org/2000/svg" viewBox="0 0 900 900" fill="none">
  <defs>
    <linearGradient id="bg" x1="120" y1="0" x2="760" y2="900" gradientUnits="userSpaceOnUse">
      <stop stop-color="#EFE7DD"/>
      <stop offset="1" stop-color="#CEC0B2"/>
    </linearGradient>
    <radialGradient id="glow" cx="0" cy="0" r="1" gradientUnits="userSpaceOnUse" gradientTransform="translate(220 180) rotate(40) scale(480 360)">
      <stop stop-color="#FFFDF9" stop-opacity=".85"/>
      <stop offset="1" stop-color="#FFFDF9" stop-opacity="0"/>
    </radialGradient>
    <filter id="shadow" x="-20%" y="-20%" width="140%" height="160%">
      <feDropShadow dx="0" dy="24" stdDeviation="24" flood-color="#231D18" flood-opacity=".14"/>
    </filter>
  </defs>
  <rect width="900" height="900" rx="64" fill="url(#bg)"/>
  <rect width="900" height="900" rx="64" fill="url(#glow)"/>
  <rect x="72" y="72" width="756" height="756" rx="48" stroke="#FFFFFF" stroke-opacity=".48"/>
  
      <ellipse cx="450" cy="664" rx="190" ry="42" fill="#1F1B18" fill-opacity=".11"/>
      <g filter="url(#shadow)">
        <path d="M344 266H556L520 598C516 628 492 652 462 652H438C408 652 384 628 380 598L344 266Z" fill="#F9FBFC" fill-opacity=".86"/>
        <path d="M344 266H556" stroke="#FFFFFF" stroke-opacity=".72" stroke-width="10"/>
        <path d="M346 348H554" stroke="#DAD3CA" stroke-width="8"/>
        <path d="M372 408H528" stroke="#DAD3CA" stroke-width="6"/>
        <path d="M398 470H502" stroke="#DAD3CA" stroke-width="6"/>
        <path d="M382 252C382 208 414 176 450 176C486 176 518 208 518 252" stroke="#B39370" stroke-width="16" stroke-linecap="round"/>
      </g>
    
  <text x="88" y="836" fill="#5D5146" font-size="34" font-family="Georgia, serif">Cut crystal ice bucket</text>
</svg>