<svg xmlns="http://www.w3.org/2000/svg" viewBox="0 0 900 900" fill="none">
  <defs>
    <linearGradient id="bg" x1="120" y1="0" x2="760" y2="900" gradientUnits="userSpaceOnUse">
      <stop stop-color="#EFE4D4"/>
      <stop offset="1" stop-color="#D7C2AB"/>
    </linearGradient>
    <radialGradient id="glow" cx="0" cy="0" r="1" gradientUnits="userSpaceOnUse" gradientTransform="translate(220 180) rotate(40) scale(480 360)">
      <stop stop-color="#FFFDF9" stop-opacity=".85"/>
      <stop offset="1" stop-color="#FFFDF9" stop-opacity="0"/>
    </radialGradient>
    <filter id="shadow" x="-20%" y="-20%" width="140%" height="160%">
      <feDropShadow dx="0" dy="24" stdDeviation="24" flood-color="#231D18" flood-opacity=".14"/>
    </filter>
  </defs>
  <rect width="900" height="900" rx="64" fill="url(#bg)"/>
  <rect width="900" height="900" rx="64" fill="url(#glow)"/>
  <rect x="72" y="72" width="756" height="756" rx="48" stroke="#FFFFFF" stroke-opacity=".48"/>
  
  <ellipse cx="614" cy="618" rx="208" ry="52" fill="#312820" fill-opacity=".11"/>
  <g filter="url(#shadow)">
    <rect x="168" y="278" width="218" height="306" rx="32" fill="#6D5945"/>
    <rect x="190" y="300" width="174" height="262" rx="22" fill="#DCC8B1"/>
    <path d="M242 240C242 196 274 160 314 160C354 160 386 196 386 240V296H242V240Z" fill="#B28C63"/>
    <rect x="540" y="282" width="116" height="264" rx="28" fill="#F7F1E8"/>
    <rect x="566" y="222" width="64" height="92" rx="18" fill="#C7A37A"/>
    <rect x="478" y="432" width="218" height="154" rx="26" fill="#E7D5BE"/>
    <rect x="512" y="402" width="150" height="48" rx="16" fill="#8C775F"/>
    <circle cx="694" cy="480" r="42" fill="#E9D9C5"/>
  </g>

  <text x="88" y="836" fill="#5D5146" font-size="34" font-family="Georgia, serif">Curated for home, hosting, and the seasons</text>
</svg>