<svg xmlns="http://www.w3.org/2000/svg" viewBox="0 0 900 900" fill="none">
  <defs>
    <linearGradient id="bg" x1="120" y1="0" x2="760" y2="900" gradientUnits="userSpaceOnUse">
      <stop stop-color="#F5ECDF"/>
      <stop offset="1" stop-color="#D9C6AE"/>
    </linearGradient>
    <radialGradient id="glow" cx="0" cy="0" r="1" gradientUnits="userSpaceOnUse" gradientTransform="translate(220 180) rotate(40) scale(480 360)">
      <stop stop-color="#FFFDF9" stop-opacity=".85"/>
      <stop offset="1" stop-color="#FFFDF9" stop-opacity="0"/>
    </radialGradient>
    <filter id="shadow" x="-20%" y="-20%" width="140%" height="160%">
      <feDropShadow dx="0" dy="24" stdDeviation="24" flood-color="#231D18" flood-opacity=".14"/>
    </filter>
  </defs>
  <rect width="900" height="900" rx="64" fill="url(#bg)"/>
  <rect width="900" height="900" rx="64" fill="url(#glow)"/>
  <rect x="72" y="72" width="756" height="756" rx="48" stroke="#FFFFFF" stroke-opacity=".48"/>
  
      <ellipse cx="450" cy="660" rx="188" ry="46" fill="#2F261E" fill-opacity=".12"/>
      <g filter="url(#shadow)">
        <path d="M360 242H540V324C540 370 572 392 572 486C572 590 514 658 450 658C386 658 328 590 328 486C328 392 360 370 360 324V242Z" fill="#FBF7F1"/>
        <path d="M386 196H514V262H386V196Z" fill="#EEE4D8"/>
        <path d="M418 150H482V208H418V150Z" fill="#D0B28E"/>
        <rect x="404" y="402" width="92" height="114" rx="22" fill="#D7C1A5" fill-opacity=".55"/>
      </g>
    
  <text x="88" y="836" fill="#5D5146" font-size="34" font-family="Georgia, serif">Ivory porcelain ginger jar</text>
</svg>