<svg xmlns="http://www.w3.org/2000/svg" viewBox="0 0 900 900" fill="none">
  <defs>
    <linearGradient id="bg" x1="120" y1="0" x2="760" y2="900" gradientUnits="userSpaceOnUse">
      <stop stop-color="#F0E5D4"/>
      <stop offset="1" stop-color="#CFB89D"/>
    </linearGradient>
    <radialGradient id="glow" cx="0" cy="0" r="1" gradientUnits="userSpaceOnUse" gradientTransform="translate(220 180) rotate(40) scale(480 360)">
      <stop stop-color="#FFFDF9" stop-opacity=".85"/>
      <stop offset="1" stop-color="#FFFDF9" stop-opacity="0"/>
    </radialGradient>
    <filter id="shadow" x="-20%" y="-20%" width="140%" height="160%">
      <feDropShadow dx="0" dy="24" stdDeviation="24" flood-color="#231D18" flood-opacity=".14"/>
    </filter>
  </defs>
  <rect width="900" height="900" rx="64" fill="url(#bg)"/>
  <rect width="900" height="900" rx="64" fill="url(#glow)"/>
  <rect x="72" y="72" width="756" height="756" rx="48" stroke="#FFFFFF" stroke-opacity=".48"/>
  
      <ellipse cx="450" cy="664" rx="206" ry="44" fill="#231D18" fill-opacity=".12"/>
      <g filter="url(#shadow)">
        <rect x="262" y="286" width="376" height="304" rx="34" fill="#B58C5F"/>
        <rect x="300" y="324" width="300" height="228" rx="20" fill="#D3A56E"/>
        <path d="M450 210C508 210 550 252 550 310V322H514V312C514 274 486 246 450 246C414 246 386 274 386 312V322H350V310C350 252 392 210 450 210Z" fill="#8D6C4B"/>
      </g>
    
  <text x="88" y="836" fill="#5D5146" font-size="34" font-family="Georgia, serif">Woven picnic hamper</text>
</svg>